<?xml version="1.0" encoding="UTF-8"?>
<svg width="512px" height="512px" viewBox="0 0 512 512" version="1.1" xmlns="http://www.w3.org/2000/svg" xmlns:xlink="http://www.w3.org/1999/xlink">

    <g id="画板" stroke="none" stroke-width="1" fill="none" fill-rule="evenodd">
        <rect id="矩形" fill="#FFFFFF" x="0" y="0" width="512" height="512"></rect>
        <path d="M256,76 C355.411255,76 436,156.588745 436,256 C436,314.956111 407.656013,367.292129 363.851453,400.124641 C284.913025,282.284542 357.485327,110.121182 190.775155,183.642155 C239.46272,215.19529 110.971717,375.151856 275.750931,423.494032 C284.480485,426.049507 294.498147,428.005174 304.92998,429.268204 C289.372939,433.654282 272.960406,436 256,436 C156.588745,436 76,355.411255 76,256 C76,156.588745 156.588745,76 256,76 Z M252.562202,112.273242 L252.348087,112.277246 C250.557785,112.355084 249.003447,113.53504 248.447238,115.238528 L248.447238,115.238528 L244.886318,125.735702 L244.813226,125.934707 C244.012089,127.962045 241.805224,129.080286 239.680857,128.499319 L239.680857,128.499319 L228.580194,125.39742 L228.367165,125.344332 C226.8012,124.99614 225.162925,125.549368 224.129151,126.791966 C223.048387,128.091045 222.828719,129.902717 223.567699,131.422442 L223.567699,131.422442 L230.041595,148.365311 L230.140503,148.556191 C230.932126,149.995055 232.480852,150.863531 234.133358,150.776611 L234.133358,150.776611 L275.108529,148.54947 L275.318823,148.5324 C276.991251,148.355531 278.416566,147.217992 278.952907,145.610481 L278.952907,145.610481 L283.444607,127.680128 L283.508933,127.468275 C283.939072,125.908814 283.457194,124.23091 282.248323,123.137201 C280.984503,121.993777 279.164643,121.704683 277.608702,122.400174 L277.608702,122.400174 L266.669629,127.309061 L266.443337,127.40318 C265.453983,127.781987 264.356242,127.783118 263.362119,127.4007 C262.291524,126.988865 261.429855,126.166346 260.968719,125.116044 L260.968719,125.116044 L256.491228,114.888797 L256.40249,114.693894 C255.656977,113.158552 254.066777,112.202522 252.348087,112.277246 Z" id="形状结合" fill="#00A5F2"></path>
    </g>
</svg>